HIERARCHY
ROOT Hips
{
  OFFSET 128.474 59.0999 382.392
  CHANNELS 6 Xposition Yposition Zposition Zrotation Xrotation Yrotation
  JOINT RightUpLeg
  {
    OFFSET -8.9458 -8.66707 0.101652
    CHANNELS 3 Zrotation Xrotation Yrotation
    JOINT RightLeg
    {
      OFFSET 0 -44.4227 1.3727
      CHANNELS 3 Zrotation Xrotation Yrotation
      JOINT RightFoot
      {
        OFFSET 0.253549 -42.0924 -1.46059
        CHANNELS 3 Zrotation Xrotation Yrotation
        JOINT RightToes
        {
          OFFSET 0.04 -4.41509 8.4991
          CHANNELS 3 Zrotation Xrotation Yrotation
          End Site
          {
            OFFSET -0.08 -0.137448 9.77979
          }
        }
      }
    }
  }
  JOINT Spine
  {
    OFFSET 0 11.8905 0
    CHANNELS 3 Zrotation Xrotation Yrotation
    JOINT Spine1
    {
      OFFSET 0 25.6574 0.127663
      CHANNELS 3 Zrotation Xrotation Yrotation
      JOINT HEad
      {
        OFFSET 0 8.73416 0.011341
        CHANNELS 3 Zrotation Xrotation Yrotation
        End Site
        {
          OFFSET -0.29 12.7742 2.51395
        }
      }
      JOINT LeftShoulder1
      {
        OFFSET 8.99 -0.362252 -0.22
        CHANNELS 3 Zrotation Xrotation Yrotation
        JOINT LeftArm
        {
          OFFSET 10.2827 -0.00338 0.322123
          CHANNELS 3 Zrotation Xrotation Yrotation
          JOINT LeftForeArm
          {
            OFFSET 32.7669 0.099144 -1.42434
            CHANNELS 3 Zrotation Xrotation Yrotation
            JOINT LeftHand
            {
              OFFSET 27.5643 0.085362 1.02216
              CHANNELS 3 Zrotation Xrotation Yrotation
              End Site
              {
                OFFSET 16.7443 -0.6 1.50291
              }
            }
          }
        }
      }
      JOINT RightShoulder
      {
        OFFSET -8.99 -0.362252 -0.22
        CHANNELS 3 Zrotation Xrotation Yrotation
        JOINT RightArm
        {
          OFFSET -10.2827 -0.00338 0.322123
          CHANNELS 3 Zrotation Xrotation Yrotation
          JOINT RightForeArm
          {
            OFFSET -32.8971 0.099144 -1.42434
            CHANNELS 3 Zrotation Xrotation Yrotation
            JOINT RightHand
            {
              OFFSET -27.4921 0.085362 1.02216
              CHANNELS 3 Zrotation Xrotation Yrotation
              End Site
              {
                OFFSET -16.6312 -0.6 1.50291
              }
            }
          }
        }
      }
    }
  }
  JOINT LeftUpLeg
  {
    OFFSET 8.9458 -8.66707 0.101652
    CHANNELS 3 Zrotation Xrotation Yrotation
    JOINT LeftLeg
    {
      OFFSET 0 -44.4227 1.3727
      CHANNELS 3 Zrotation Xrotation Yrotation
      JOINT LeftFoot
      {
        OFFSET -0.253549 -42.0924 -1.46059
        CHANNELS 3 Zrotation Xrotation Yrotation
        JOINT LeftToes
        {
          OFFSET -0.04 -4.41509 8.4991
          CHANNELS 3 Zrotation Xrotation Yrotation
          End Site
          {
            OFFSET 0.08 -0.047448 9.77979
          }
        }
      }
    }
  }
}
MOTION
Frames:	14
Frame Time:	0.0166667
-18.729	59.183	40.304	23.2878	46.2754	147.946	-24.5711	-32.0036	-10.082	34.1843	77.3574	-27.6665	0.831209	4.15423	-0.618421	4.62E-02	5.34E-04	6.63E-01	-0.503971	-2.30272	-0.204149	-1.01728	-4.60076	-0.427274	4.06673	-15.2255	44.4892	-3.18E-15	-3.18E-15	-1.59E-15	9.29884	-47.1796	-44.9529	-22.3678	-41.7911	-150.845	-2.11265	2.75743	3.10698	-3.18E-15	-3.18E-15	-1.59E-15	0.845149	-45.6031	36.4374	-0.863903	-34.5001	142.322	-27.4822	1.0745	8.13391	12.4925	-8.00E+01	48.3694	-139.514	38.4124	128.066	-3.54721	-4.69978	-13.4654	1.59E-14	2.70E-14	1.27E-14
-18.746	59.1856	40.289	23.2968	46.2673	147.93	-24.5994	-31.9975	-10.0966	34.2298	77.3467	-27.6996	0.837176	4.14792	-0.613215	4.62E-02	5.34E-04	6.63E-01	-0.503175	-2.29132	-0.204188	-1.01426	-4.578	-0.418513	4.14811	-15.2424	44.4301	0.00E+00	0.00E+00	-1.59E-15	9.33263	-47.1594	-44.9295	-22.3151	-41.8142	-150.814	-1.94039	2.74943	3.00272	0.00E+00	0.00E+00	-1.59E-15	0.906721	-45.5768	36.4302	-0.930796	-34.5304	142.358	-27.533	1.13872	7.99982	1.25E+01	-7.99E+01	4.85E+01	-139.545	38.397	128.111	-3.57294	-4.68343	-13.5123	1.27E-14	2.23E-14	6.36E-15
-18.759	59.1867	40.273	23.2994	46.2706	147.93	-24.6323	-31.9763	-10.1054	34.2947	77.3384	-27.7523	0.844882	4.13668	-0.614954	4.62E-02	5.34E-04	6.63E-01	-0.504147	-2.27553	-0.204434	-1.01643	-4.54647	-0.409313	4.24145	-15.2547	44.3615	0.00E+00	-3.18E-15	0.00E+00	9.29518	-47.1369	-44.9845	-22.2732	-41.8709	-150.772	-1.79333	2.6881	2.84729	0.00E+00	-3.18E-15	0.00E+00	0.958898	-45.5653	36.3838	-0.987534	-34.4795	142.424	-27.6227	1.26489	7.8597	1.26E+01	-7.99E+01	4.85E+01	-139.578	38.3902	128.17	-3.56956	-4.73026	-13.5129	1.59E-14	2.86E-14	9.54E-15
-18.77	59.1899	40.257	23.305	46.2791	147.928	-24.646	-31.9577	-10.079	34.3787	77.3264	-27.8356	0.857886	4.13243	-0.6226	4.62E-02	5.34E-04	6.63E-01	-0.506929	-2.26174	-0.204579	-1.02185	-4.51888	-0.407751	4.37016	-15.2595	44.3498	-3.18E-15	0.00E+00	0.00E+00	9.25114	-47.0829	-45.0275	-22.248	-41.9167	-150.737	-1.68628	2.58539	2.70557	-3.18E-15	0.00E+00	0.00E+00	1.00527	-45.5209	36.3305	-1.051	-34.3338	142.512	-27.9175	1.39072	7.72376	1.26E+01	-7.98E+01	48.6149	-139.614	38.3865	128.237	-3.60372	-4.71931	-13.5517	1.27E-14	3.18E-14	3.18E-15
-18.775	59.1946	40.244	23.3	46.2944	147.94	-24.6502	-31.9358	-10.0402	34.4388	77.3157	-27.9089	0.867809	4.12513	-0.632175	4.62E-02	5.34E-04	6.63E-01	-0.513061	-2.2474	-0.204311	-1.03447	-4.49016	-0.414322	4.51191	-15.2584	44.4119	6.36E-15	0.00E+00	1.59E-15	9.22969	-47.0279	-45.0314	-22.2609	-41.9264	-150.721	-1.62264	2.51232	2.61399	6.36E-15	0.00E+00	1.59E-15	0.906515	-45.4329	36.1803	-1.10024	-34.2018	142.573	-28.4127	1.45495	7.63296	1.27E+01	-79.7859	4.87E+01	-139.645	38.3893	128.294	-3.61158	-4.76457	-13.5512	9.54E-15	3.50E-14	3.18E-15
-18.773	59.2036	40.232	23.2549	46.2973	147.993	-24.6696	-31.9274	-10.0227	34.4518	77.313	-27.9346	0.874947	4.11873	-0.642418	4.62E-02	5.34E-04	6.63E-01	-0.525634	-2.2338	-0.203321	-1.06009	-4.46288	-0.422082	4.62269	-15.2634	44.5274	3.18E-15	0.00E+00	1.59E-15	9.23794	-47.0108	-45.0101	-22.3096	-41.8976	-150.717	-1.57993	2.46147	2.56228	3.18E-15	0.00E+00	1.59E-15	0.59419	-45.3177	35.875	-1.16736	-34.1986	142.566	-29.0131	1.43712	7.6096	1.28E+01	-7.98E+01	4.89E+01	-139.678	38.4018	128.353	-3.6645	-4.73216	-13.5947	9.54E-15	3.82E-14	1.27E-14
-18.765	59.2134	40.221	23.1677	46.2868	148.085	-24.706	-31.9489	-9.9949	34.5272	77.3091	-28.0238	0.885668	4.11478	-0.653359	4.62E-02	5.34E-04	6.63E-01	-0.547891	-2.21884	-0.201296	-1.10484	-4.43286	-0.424515	4.69605	-15.3059	44.6608	-3.18E-15	0.00E+00	0.00E+00	9.26695	-47.0791	-44.9841	-22.376	-41.8492	-150.708	-1.57441	2.39948	2.5127	-3.18E-15	0.00E+00	0.00E+00	0.156246	-45.2142	35.462	-1.28081	-34.2966	142.523	-29.6293	1.34546	7.62439	13.0172	-79.806	49.1183	-139.715	38.4255	128.401	-3.70807	-4.71328	-13.605	9.54E-15	3.18E-14	1.27E-14
-18.754	59.2189	40.212	23.0774	46.2862	148.177	-24.7295	-31.9834	-9.91063	34.6916	77.3003	-28.2182	0.908402	4.12319	-0.659338	4.62E-02	5.34E-04	6.63E-01	-0.578474	-2.19896	-0.196482	-1.1658	-4.39302	-0.41585	4.73739	-15.3906	44.7809	-3.18E-15	-3.18E-15	0.00E+00	9.28741	-47.2126	-44.9806	-22.4474	-41.7623	-150.693	-1.60712	2.34455	2.46083	-3.18E-15	-3.18E-15	0.00E+00	-0.33082	-45.125	34.9927	-1.43062	-34.4462	142.473	-30.2146	1.2232	7.65318	1.33E+01	-7.98E+01	49.4153	-139.752	38.4388	128.427	-3.72318	-4.70819	-13.5801	1.27E-14	3.18E-14	1.27E-14
-18.741	59.2175	40.211	23.028	46.3155	148.254	-24.7155	-31.9967	-9.79879	34.8538	77.3036	-28.4205	0.932388	4.1464	-0.674068	4.62E-02	5.34E-04	6.63E-01	-0.609707	-2.17513	-0.191815	-1.22805	-4.3453	-0.40744	4.76592	-15.47	44.8889	6.36E-15	-3.18E-15	1.59E-15	9.24616	-47.3536	-45.0247	-22.4936	-41.6452	-150.675	-1.68121	2.3236	2.43516	6.36E-15	-3.18E-15	1.59E-15	-0.796232	-45.0584	34.5627	-1.58947	-34.5691	142.425	-30.7627	1.14618	7.66932	1.35E+01	-7.99E+01	4.96E+01	-139.773	38.4284	128.413	-3.71581	-4.70461	-13.5397	1.59E-14	2.54E-14	1.59E-14
-18.722	59.2157	40.211	22.9629	46.2972	148.331	-24.673	-32.07	-9.71107	34.9456	77.3323	-28.5491	0.952339	4.16041	-0.693671	4.62E-02	5.34E-04	6.63E-01	-0.636714	-2.16285	-0.182917	-1.28173	-4.32074	-0.390508	4.77775	-15.5599	44.9869	0.00E+00	0.00E+00	0.00E+00	9.14497	-47.506	-45.1004	-22.4884	-41.5496	-150.661	-1.79014	2.36661	2.44672	0.00E+00	0.00E+00	0.00E+00	-1.18993	-45.062	34.2242	-1.73071	-34.6287	142.372	-31.2638	1.10072	7.67454	1.40E+01	-7.99E+01	50.0342	-139.787	38.3949	128.383	-3.72303	-4.652	-13.5249	1.59E-14	3.18E-14	1.59E-14
-18.698	59.2091	40.214	22.8984	46.263	148.404	-24.6206	-32.1548	-9.65518	34.942	77.3737	-28.5956	0.964725	4.16082	-0.694379	4.62E-02	5.34E-04	6.63E-01	-0.656656	-2.15591	-0.176668	-1.32139	-4.30686	-0.378668	4.73216	-15.6148	45.0826	0.00E+00	0.00E+00	0.00E+00	8.99322	-47.6076	-45.1772	-22.4272	-41.4923	-150.657	-1.86924	2.47368	2.49496	0.00E+00	0.00E+00	0.00E+00	-1.49272	-45.083	34.0029	-1.83451	-34.6463	142.313	-31.6613	1.06292	7.6916	1.46E+01	-8.00E+01	5.05E+01	-139.796	38.3628	128.372	-3.72232	-4.59399	-13.5355	9.54E-15	3.98E-14	9.54E-15
-18.675	59.2	40.225	22.8824	46.2641	148.447	-24.5552	-32.1856	-9.60344	34.8761	77.4087	-28.599	0.970172	4.16592	-0.677856	4.62E-02	5.34E-04	0.662642	-0.670282	-2.14863	-0.17305	-1.3485	-4.29229	-0.371849	4.61522	-15.5741	45.1432	-6.36E-15	3.18E-15	1.59E-15	8.80985	-47.5901	-45.2572	-22.3498	-41.4699	-150.679	-1.90617	2.62689	2.59696	-6.36E-15	3.18E-15	1.59E-15	-1.71519	-45.0316	33.8964	-1.90827	-34.6724	142.215	-31.8806	1.01899	7.7312	1.51E+01	-8.01E+01	5.09E+01	-139.805	38.3462	128.379	-3.70028	-4.55864	-13.5534	3.18E-15	3.02E-14	0.00E+00
-18.653	59.1937	40.237	22.8833	46.2685	148.487	-24.5006	-32.1901	-9.58405	34.7808	77.4359	-28.5785	0.9664	4.16552	-0.654331	4.62E-02	5.34E-04	6.63E-01	-0.679636	-2.14417	-0.170659	-1.36743	-4.28336	-0.371541	4.44836	-15.4584	45.1409	-3.18E-15	-3.18E-15	-3.18E-15	8.60676	-47.4967	-45.3577	-22.2807	-41.4584	-150.709	-1.92358	2.8083	2.71791	-3.18E-15	-3.18E-15	-3.18E-15	-1.81374	-44.9284	33.8978	-1.99359	-34.7037	142.096	-31.9199	0.954514	7.77387	1.54E+01	-8.01E+01	51.1452	-139.808	38.3365	128.393	-3.63593	-4.59726	-13.5418	1.91E-14	4.13E-14	3.18E-15
-18.639	59.1867	40.249	22.8921	46.2774	148.541	-24.4749	-32.1642	-9.60514	34.68	77.455	-28.526	0.96289	4.15233	-0.641243	4.62E-02	5.34E-04	6.63E-01	-0.687292	-2.13913	-0.168838	-1.38296	-4.27324	-0.373779	4.27466	-15.2784	45.0833	6.36E-15	3.18E-15	4.77E-15	8.4163	-47.3815	-45.4547	-22.2507	-41.4247	-150.73	-1.92324	2.95482	2.81221	6.36E-15	3.18E-15	4.77E-15	-1.78289	-44.8159	33.9838	-2.0549	-34.6904	142.015	-31.8315	0.884336	7.80352	1.54E+01	-8.01E+01	51.1009	-139.806	38.3309	128.416	-3.60466	-4.5984	-13.5657	6.36E-15	3.02E-14	9.54E-15
